# File exported by Houdini 18.5.408 (www.sidefx.com)
# 12 points
# 60 vertices
# 20 primitives
# Bounds: [-0.425325423, -0.44721368, -0.5] to [0.425325423, 0.44721368, 0.5]
g 
v 0 0 -0.5
v 0 0.44721368 -0.223606572
v 0.425325423 0.138196841 -0.223606601
v 0.262865603 -0.361803472 -0.223606631
v -0.262865603 -0.361803472 -0.223606631
v -0.425325423 0.138196841 -0.223606601
v -0.262865603 0.361803472 0.223606631
v -0.425325423 -0.138196841 0.223606601
v 0 -0.44721368 0.223606572
v 0.425325423 -0.138196841 0.223606601
v 0.262865603 0.361803472 0.223606631
v 0 0 0.5
vn 0.850650728 0.276393533 -0.447213411
vn -7.16264337e-09 -1.43252867e-08 -1
vn 0 0.89442724 -0.447213382
vn 0.525731146 -0.723606706 -0.447213531
vn -7.16264337e-09 -1.43252867e-08 -1
vn 0.850650728 0.276393533 -0.447213411
vn -0.525731146 -0.723606706 -0.447213531
vn -7.16264337e-09 -1.43252867e-08 -1
vn 0.525731146 -0.723606706 -0.447213531
vn -0.850650728 0.276393563 -0.447213411
vn -7.16264337e-09 -1.43252867e-08 -1
vn -0.525731146 -0.723606706 -0.447213531
vn 0 0.89442724 -0.447213382
vn -7.16264337e-09 -1.43252867e-08 -1
vn -0.850650728 0.276393563 -0.447213411
vn -0.525731087 0.723606706 0.44721356
vn 0 0.89442724 -0.447213382
vn -0.850650728 0.276393563 -0.447213411
vn -0.850650728 -0.276393533 0.447213411
vn -0.850650728 0.276393563 -0.447213411
vn -0.525731146 -0.723606706 -0.447213531
vn 0 -0.89442724 0.447213411
vn -0.525731146 -0.723606706 -0.447213531
vn 0.525731146 -0.723606706 -0.447213531
vn 0.850650728 -0.276393563 0.447213411
vn 0.525731146 -0.723606706 -0.447213531
vn 0.850650728 0.276393533 -0.447213411
vn 0.525731087 0.723606706 0.44721356
vn 0.850650728 0.276393533 -0.447213411
vn 0 0.89442724 -0.447213382
vn 0.525731087 0.723606706 0.44721356
vn 0 0.89442724 -0.447213382
vn -0.525731087 0.723606706 0.44721356
vn -0.525731087 0.723606706 0.44721356
vn -0.850650728 0.276393563 -0.447213411
vn -0.850650728 -0.276393533 0.447213411
vn -0.850650728 -0.276393533 0.447213411
vn -0.525731146 -0.723606706 -0.447213531
vn 0 -0.89442724 0.447213411
vn 0 -0.89442724 0.447213411
vn 0.525731146 -0.723606706 -0.447213531
vn 0.850650728 -0.276393563 0.447213411
vn 0.850650728 -0.276393563 0.447213411
vn 0.850650728 0.276393533 -0.447213411
vn 0.525731087 0.723606706 0.44721356
vn -0.525731087 0.723606706 0.44721356
vn 0 1.07439648e-08 1
vn 0.525731087 0.723606706 0.44721356
vn 0.525731087 0.723606706 0.44721356
vn 0 1.07439648e-08 1
vn 0.850650728 -0.276393563 0.447213411
vn 0.850650728 -0.276393563 0.447213411
vn 0 1.07439648e-08 1
vn 0 -0.89442724 0.447213411
vn 0 -0.89442724 0.447213411
vn 0 1.07439648e-08 1
vn -0.850650728 -0.276393533 0.447213411
vn -0.850650728 -0.276393533 0.447213411
vn 0 1.07439648e-08 1
vn -0.525731087 0.723606706 0.44721356
g 
f 3//1 1//2 2//3
f 4//4 1//5 3//6
f 5//7 1//8 4//9
f 6//10 1//11 5//12
f 2//13 1//14 6//15
f 7//16 2//17 6//18
f 8//19 6//20 5//21
f 9//22 5//23 4//24
f 10//25 4//26 3//27
f 11//28 3//29 2//30
f 11//31 2//32 7//33
f 7//34 6//35 8//36
f 8//37 5//38 9//39
f 9//40 4//41 10//42
f 10//43 3//44 11//45
f 7//46 12//47 11//48
f 11//49 12//50 10//51
f 10//52 12//53 9//54
f 9//55 12//56 8//57
f 8//58 12//59 7//60
